# xmcd
#
# Track frame offsets:
#	150
#	21331
#	41938
#	62928
#	85463
#	106147
#	126682
#	145735
#	168320
#	189234
#	221174
#
# Disc length: 3645 seconds
#
# Revision: 5
# Processed by: cddbd v1.5.2PL0 Copyright (c) Steve Scherf et al.
# Submitted via: EasyCDDAExtractor 15.3.0.1
#
DISCID=a80e3b0b
DTITLE=Victor Manuelle - Inconfundible
DYEAR=1999
DGENRE=Latin
TTITLE0=Si La Ves
TTITLE1=Al Igual Que Ayer
TTITLE2=Por Ella
TTITLE3=Pero Dile
TTITLE4=Cuando Tu Amor Se Acabe
TTITLE5=Si Por Ti Fuera
TTITLE6=Como Quisiera Decirte
TTITLE7=Como Duele
TTITLE8=Por Ti
TTITLE9=Bella Sin Alma
TTITLE10=Data
EXTD=ID3G: 86
EXTT0=
EXTT1=
EXTT2=
EXTT3=
EXTT4=
EXTT5=
EXTT6=
EXTT7=
EXTT8=
EXTT9=
EXTT10=
PLAYORDER=
